<?xml version="1.0" standalone="no"?>
<!DOCTYPE svg PUBLIC "-//W3C//DTD SVG 20010904//EN"
 "http://www.w3.org/TR/2001/REC-SVG-20010904/DTD/svg10.dtd">
<svg version="1.0" xmlns="http://www.w3.org/2000/svg"
 width="500.000000pt" height="500.000000pt" viewBox="0 0 500.000000 500.000000"
 preserveAspectRatio="xMidYMid meet">

<g transform="translate(0.000000,500.000000) scale(0.100000,-0.100000)"
fill="#000000" stroke="none">
<path d="M855 3290 c-27 -4 -70 -15 -94 -24 -41 -15 -45 -15 -57 1 -12 17 -13
16 -8 -3 5 -17 -2 -24 -36 -38 -95 -38 -234 -148 -309 -244 -25 -32 -39 -42
-53 -39 -16 5 -17 3 -7 -9 10 -12 4 -32 -29 -102 -22 -48 -48 -123 -57 -167
-9 -44 -21 -83 -28 -87 -8 -5 -8 -8 -1 -8 7 0 13 -37 17 -97 4 -54 13 -122 21
-152 15 -52 90 -220 104 -231 14 -10 62 -79 62 -89 0 -5 -8 -15 -17 -20 -10
-6 -15 -11 -10 -11 4 0 15 5 25 11 15 9 24 7 48 -16 80 -75 263 -195 286 -187
4 1 31 -7 60 -17 93 -34 171 -44 291 -37 129 7 141 9 182 25 53 22 86 25 97
10 8 -11 9 -10 4 4 -4 13 2 20 20 27 97 37 256 159 320 245 21 28 39 52 41 54
1 2 12 -4 23 -14 11 -10 20 -15 20 -10 0 4 -8 14 -17 21 -16 11 -16 15 -4 36
47 75 88 188 98 265 3 29 9 53 12 53 3 0 5 29 3 64 -3 55 -1 65 15 69 14 4 14
5 -4 6 -20 1 -23 7 -23 39 0 54 -22 127 -65 217 -22 44 -39 86 -38 93 0 6 -4
12 -11 12 -12 0 -66 72 -66 89 0 6 -5 11 -11 11 -6 0 -38 25 -72 55 -68 61
-78 68 -182 119 -142 70 -176 78 -345 82 -85 1 -177 -1 -205 -6z m304 -102
c-4 -24 -8 -46 -9 -50 0 -5 -6 -8 -14 -8 -14 0 -12 17 9 87 12 39 23 16 14
-29z m-181 -2 c5 -42 -14 -54 -23 -14 l-9 33 -3 -32 c-7 -54 -33 -34 -33 23 0
22 4 25 33 22 27 -3 33 -7 35 -32z m80 -3 c-2 -30 -7 -38 -23 -38 -29 0 -45
14 -45 40 0 29 8 35 42 35 28 0 29 -2 26 -37z m53 8 c-8 -6 -11 -16 -6 -31 6
-18 3 -21 -12 -18 -24 4 -28 41 -7 62 12 13 20 14 28 6 8 -8 7 -13 -3 -19z
m-211 9 c0 -5 -5 -10 -11 -10 -7 0 -9 -11 -5 -30 7 -36 -18 -43 -28 -7 -12 44
-7 57 19 57 14 0 25 -4 25 -10z m-73 -12 c28 -37 13 -85 -22 -71 -21 7 -30 50
-15 68 15 18 25 19 37 3z m-69 -10 c5 -7 13 -28 17 -45 8 -40 -10 -45 -27 -8
-6 14 -15 25 -20 25 -12 0 -10 -24 3 -37 6 -6 8 -17 4 -23 -6 -9 -13 -6 -26
11 -10 13 -19 19 -19 14 0 -6 5 -16 12 -23 8 -8 9 -15 1 -23 -7 -7 -16 -1 -31
22 -24 39 -22 46 21 57 22 6 31 14 29 25 -3 20 21 23 36 5z m470 -5 c13 -22
-6 -63 -29 -63 -26 0 -39 29 -26 57 12 27 42 30 55 6z m73 -13 c12 0 11 -37
-1 -61 -17 -30 -30 -22 -24 14 l5 32 -16 -28 c-20 -34 -38 -27 -24 10 15 39
20 45 36 39 8 -3 19 -6 24 -6z m-664 -53 c28 -41 38 -67 25 -67 -14 0 -73 81
-66 92 9 14 18 9 41 -25z m737 10 c20 -14 20 -13 -20 -75 -1 -2 -11 3 -23 10
-23 14 -26 30 -11 59 12 22 29 24 54 6z m76 -3 c0 -16 -63 -94 -71 -88 -6 4
-5 14 4 27 8 12 20 32 28 45 12 20 39 31 39 16z m-270 -64 c163 -39 301 -147
369 -290 35 -73 36 -78 36 -195 0 -112 -2 -125 -30 -185 -91 -200 -281 -320
-509 -320 -475 0 -723 501 -414 836 73 79 203 145 328 167 60 10 139 6 220
-13z m357 -22 c27 -25 29 -54 6 -80 -23 -25 -55 -23 -83 7 l-24 25 34 35 c19
19 36 35 39 35 3 0 15 -10 28 -22z m-963 6 c10 -4 16 -18 16 -36 0 -26 -3 -29
-26 -26 -31 3 -50 28 -41 52 7 17 24 20 51 10z m1067 -20 c13 -14 31 -33 39
-43 47 -52 130 -226 130 -273 0 -10 -50 1 -68 15 -11 9 -12 4 -7 -26 8 -43 -6
-49 -23 -9 l-12 27 4 -28 c5 -38 -10 -43 -28 -10 -16 30 -19 26 -17 -22 2 -29
1 -29 -14 -11 -8 11 -15 25 -15 32 0 7 -3 19 -6 28 -4 11 6 18 38 27 54 16 62
23 50 44 -6 12 -11 14 -16 6 -4 -6 -16 -11 -27 -11 -10 0 -24 -9 -31 -20 -7
-11 -16 -20 -19 -20 -15 0 -18 33 -4 53 14 21 13 23 -8 22 -39 0 -33 19 11 40
28 13 42 26 42 38 0 15 -3 17 -13 9 -10 -8 -16 -6 -25 9 -17 26 -36 25 -22 -2
15 -27 4 -38 -14 -13 -19 25 -31 12 -16 -16 6 -12 9 -25 5 -28 -7 -7 -55 43
-55 58 0 4 18 22 39 39 l39 31 27 -32 c17 -21 24 -26 20 -13 -49 138 -49 149
-4 99z m-1135 -29 c39 -32 42 -38 31 -55 -24 -40 -78 -17 -76 31 1 13 -2 32
-6 42 -11 26 3 21 51 -18z m-6 -101 c0 -6 -9 -19 -20 -29 -18 -17 -21 -17 -45
-1 -29 19 -31 29 -9 55 15 18 18 18 45 2 16 -9 29 -21 29 -27z m-66 -44 c14
-5 26 -17 26 -25 0 -12 -4 -14 -19 -5 -11 5 -26 10 -33 10 -7 -1 0 -8 15 -16
34 -19 27 -37 -10 -23 -40 15 -42 17 -30 44 13 28 16 29 51 15z m-23 -78 c32
-27 20 -54 -23 -50 -36 3 -49 28 -28 53 16 19 23 19 51 -3z m-84 -78 c-9 -9
-28 6 -21 18 4 6 10 6 17 -1 6 -6 8 -13 4 -17z m71 6 c6 0 12 -7 12 -16 0 -12
-6 -15 -22 -10 -13 3 -29 6 -35 6 -7 0 -13 7 -13 16 0 12 6 15 23 10 12 -3 28
-6 35 -6z m-39 -52 c1 8 10 12 24 10 25 -3 31 -38 8 -46 -10 -3 -12 0 -7 14 7
17 6 17 -13 0 -22 -20 -41 -14 -41 13 0 26 13 35 21 14 4 -10 8 -12 8 -5z
m1391 -37 c14 -28 12 -57 -5 -71 -16 -13 -19 -6 -16 33 3 22 -25 33 -44 17
-14 -11 -14 -15 0 -30 20 -22 2 -38 -20 -20 -21 17 -19 67 3 79 29 17 70 13
82 -8z m-1440 -26 c0 -8 -4 -15 -10 -15 -5 0 -10 7 -10 15 0 8 5 15 10 15 6 0
10 -7 10 -15z m90 0 c0 -16 -64 -22 -74 -6 -9 14 5 21 41 21 23 0 33 -5 33
-15z m0 -45 c0 -5 -11 -10 -25 -10 -14 0 -25 -5 -25 -10 0 -6 11 -8 25 -4 19
5 25 2 25 -9 0 -9 -10 -18 -22 -20 -19 -4 -18 -5 5 -6 41 -2 29 -25 -15 -29
-35 -3 -36 -3 -40 40 -3 24 -3 46 -1 51 6 11 73 9 73 -3z m1323 -36 c39 -7 53
-34 17 -34 -13 0 -20 -7 -20 -20 0 -13 7 -20 20 -20 11 0 20 -7 20 -15 0 -11
-11 -15 -39 -15 -22 0 -46 3 -55 6 -25 10 -19 34 9 34 16 0 25 6 25 15 0 8 -9
15 -19 15 -22 0 -35 15 -26 30 7 12 16 12 68 4z m-1308 -84 c8 -27 -11 -50
-41 -50 -31 0 -44 38 -18 57 26 19 52 16 59 -7z m1310 -60 c21 -24 13 -65 -17
-84 -28 -17 -72 4 -76 36 -7 62 53 93 93 48z m-1285 -10 c0 -25 -38 -60 -66
-60 -27 0 -48 24 -40 46 6 16 8 16 20 -1 16 -23 56 -12 56 16 0 10 7 19 15 19
8 0 15 -9 15 -20z m1200 -95 c0 -8 -9 -19 -21 -25 -11 -7 -18 -14 -16 -17 3
-3 19 3 36 13 24 14 33 15 44 5 25 -20 -4 -79 -34 -69 -8 3 -6 9 5 20 26 27
18 34 -9 8 -21 -19 -30 -22 -43 -14 -24 15 -26 41 -8 69 18 27 46 33 46 10z
m-1160 -5 c0 -5 -4 -10 -10 -10 -5 0 -10 5 -10 10 0 6 5 10 10 10 6 0 10 -4
10 -10z m44 -63 c13 -35 0 -58 -39 -72 -23 -8 -30 -6 -51 18 -13 15 -21 34
-18 42 9 23 23 18 34 -10 8 -22 13 -24 30 -15 26 14 26 36 0 43 -30 8 -24 29
7 25 20 -2 30 -11 37 -31z m186 -56 c49 -26 72 -62 72 -109 -1 -75 -53 -122
-135 -122 -64 0 -104 17 -127 55 -71 115 66 243 190 176z m870 -15 c25 -22 35
-38 30 -47 -7 -10 -12 -10 -25 1 -14 12 -18 12 -25 0 -5 -9 -4 -20 2 -28 8 -9
8 -16 0 -24 -15 -15 -93 47 -85 67 6 18 8 18 33 3 25 -16 38 -3 22 23 -12 18
-9 39 5 39 3 0 22 -15 43 -34z m-85 -102 c22 -29 25 -38 14 -45 -10 -6 -22 1
-41 24 -21 25 -30 29 -39 20 -9 -9 -7 -18 10 -39 24 -31 27 -54 7 -54 -15 0
-56 58 -56 79 0 18 38 51 59 51 10 0 31 -16 46 -36z m-113 -65 c22 -44 22 -55
1 -64 -12 -4 -24 1 -37 17 l-19 23 5 -32 c4 -30 -5 -43 -32 -43 -7 0 -50 83
-50 96 0 2 7 4 15 4 9 0 20 -10 26 -22 8 -20 9 -18 5 10 -5 27 -2 32 14 32 10
0 24 -8 30 -17 8 -14 9 -12 4 11 -9 40 16 30 38 -15z m-517 -9 c22 -24 12 -39
-15 -22 -31 19 -35 14 -10 -12 13 -15 20 -32 17 -40 -8 -21 -66 -21 -74 -1 -7
21 4 32 19 17 7 -7 16 -12 21 -12 6 0 -2 11 -17 25 -22 21 -25 28 -16 45 14
26 52 26 75 0z m372 -52 c-6 -45 -18 -67 -38 -68 -3 0 -18 21 -35 47 l-29 47
-3 -52 c-3 -59 -20 -68 -53 -29 l-18 22 -1 -22 c0 -13 -6 -23 -14 -23 -24 0
-37 92 -14 106 6 4 21 -4 35 -20 l23 -27 0 26 c0 24 2 25 51 21 34 -2 55 1 62
10 7 7 18 13 26 14 11 0 12 -11 8 -52z m-259 26 c43 -30 21 -94 -31 -94 -40 0
-57 15 -57 51 0 52 44 74 88 43z"/>
<path d="M1022 3180 c0 -14 2 -19 5 -12 2 6 2 18 0 25 -3 6 -5 1 -5 -13z"/>
<path d="M1196 3161 c-4 -7 -5 -15 -2 -18 9 -9 19 4 14 18 -4 11 -6 11 -12 0z"/>
<path d="M1335 3090 c-3 -5 -1 -10 4 -10 6 0 11 5 11 10 0 6 -2 10 -4 10 -3 0
-8 -4 -11 -10z"/>
<path d="M930 3039 c-85 -15 -210 -81 -273 -145 -112 -113 -159 -261 -133
-413 26 -147 130 -281 270 -347 152 -72 347 -74 491 -5 371 179 385 648 25
853 -95 54 -259 79 -380 57z m158 -36 c2 -7 -3 -13 -12 -13 -10 0 -16 -8 -16
-21 0 -19 5 -20 58 -18 70 3 103 -7 95 -27 -3 -8 13 -44 35 -82 23 -37 44 -74
47 -82 16 -43 -78 -81 -151 -61 -23 6 -45 19 -48 27 -4 10 12 48 41 97 56 95
68 121 50 110 -6 -4 -37 -7 -67 -8 l-55 0 -3 -119 c-3 -126 3 -146 43 -146 13
0 33 -9 46 -20 l24 -19 -128 -1 c-115 0 -127 2 -113 15 8 8 30 18 48 22 55 10
58 16 58 133 0 60 -3 115 -6 124 -4 11 -19 16 -53 16 -78 0 -79 -7 -21 -101
l52 -83 -26 -23 c-47 -40 -120 -42 -167 -4 l-23 19 44 88 c25 49 44 94 42 101
-4 17 35 26 101 24 51 -2 57 0 57 17 0 12 -9 22 -21 25 -12 3 -18 10 -14 17 9
15 77 9 83 -7z m-339 -183 l26 0 -22 -18 c-17 -13 -21 -23 -16 -42 6 -24 5
-24 -13 -8 -19 16 -22 16 -44 1 -23 -16 -23 -16 -16 10 5 20 1 29 -16 41 l-22
16 26 0 c18 0 31 8 39 22 l12 23 10 -23 c7 -14 19 -22 36 -22z m661 5 c0 -10
10 -15 33 -15 l32 -1 -22 -18 c-15 -12 -20 -25 -16 -40 6 -23 -6 -28 -24 -10
-8 8 -17 8 -33 -1 -21 -11 -22 -10 -17 10 4 16 -1 28 -16 41 l-22 18 33 1 c22
0 32 5 32 15 0 8 5 15 10 15 6 0 10 -7 10 -15z m-742 -165 c26 0 26 0 5 -15
-14 -10 -19 -22 -16 -35 5 -18 2 -20 -21 -14 -15 3 -32 1 -40 -5 -11 -9 -12
-6 -8 14 3 18 -1 30 -14 40 -18 14 -18 14 7 15 21 0 29 6 34 28 l7 27 10 -27
c7 -21 16 -28 36 -28z m859 -10 c24 0 25 -1 10 -18 -10 -11 -14 -26 -10 -42 6
-23 6 -23 -17 -7 -22 15 -26 15 -47 2 -24 -16 -29 -10 -13 15 7 11 4 20 -13
32 l-22 18 26 0 c21 0 29 6 34 28 l7 27 10 -27 c7 -21 16 -28 35 -28z m-560
-68 c20 -12 3 -51 -29 -68 -31 -16 -48 -12 -48 12 0 8 -9 14 -21 14 -27 0 -20
21 12 37 27 14 68 17 86 5z m-197 -42 c0 -7 13 -8 34 -5 36 7 81 -9 70 -26 -3
-5 0 -17 8 -26 10 -13 10 -17 0 -20 -6 -3 -10 -9 -6 -14 3 -5 -1 -9 -9 -9 -7
0 -19 -11 -26 -24 -9 -16 -19 -22 -32 -19 -14 4 -19 0 -19 -16 0 -12 5 -19 10
-16 6 3 10 4 10 1 0 -2 3 -13 7 -23 5 -14 -2 -11 -33 12 -48 36 -62 53 -71 85
-10 37 -28 51 -65 48 -28 -3 -34 1 -36 20 -4 23 3 26 64 22 18 -1 35 3 39 9 8
14 55 14 55 1z m673 -6 c43 -7 46 -18 15 -45 -25 -20 -43 -25 -33 -9 3 6 -3
10 -14 10 -14 0 -21 -6 -21 -20 0 -11 -7 -23 -15 -26 -8 -4 -15 -13 -15 -21 0
-8 -4 -11 -10 -8 -5 3 -10 -4 -10 -15 0 -13 -8 -24 -19 -27 -13 -3 -17 -11
-14 -24 7 -26 -12 -24 -32 4 l-16 22 -19 -25 -18 -25 -7 28 c-4 15 -13 27 -20
27 -14 0 -60 -87 -57 -107 4 -18 -33 -78 -48 -78 -14 0 -24 26 -35 88 -5 31
-10 37 -30 37 -29 0 -45 42 -26 71 6 10 11 28 11 39 0 11 5 20 11 20 8 0 7 5
-1 15 -7 9 -9 19 -5 23 4 4 10 1 12 -5 7 -20 25 -15 19 5 -9 26 31 45 89 44
27 -1 66 2 85 7 34 9 149 6 223 -5z m-534 -226 l38 -32 -20 -37 c-11 -20 -30
-49 -43 -65 -13 -15 -24 -33 -24 -41 0 -8 -4 -11 -10 -8 -5 3 -9 34 -8 68 0
34 -2 74 -7 89 -17 63 16 75 74 26z m417 -15 c-10 -10 -19 5 -10 18 6 11 8 11
12 0 2 -7 1 -15 -2 -18z m-17 -54 l26 0 -23 -12 c-20 -9 -23 -16 -18 -41 6
-29 6 -29 -14 -11 -18 17 -21 17 -45 1 -25 -17 -26 -17 -19 9 5 19 1 30 -12
40 -18 14 -17 14 8 15 19 0 29 7 34 22 l7 23 15 -23 c8 -13 25 -22 41 -23z"/>
<path d="M857 2820 l-37 -70 80 0 c44 0 80 3 80 7 0 10 -74 133 -80 133 -3 0
-22 -31 -43 -70z"/>
<path d="M1160 2827 c-19 -34 -36 -65 -38 -69 -2 -5 33 -8 77 -8 45 0 81 2 81
5 0 4 -76 124 -83 131 -2 2 -18 -25 -37 -59z"/>
<path d="M796 2501 c-3 -5 1 -12 10 -15 24 -9 31 -7 31 9 0 16 -32 21 -41 6z"/>
<path d="M1037 2433 c-10 -10 42 -33 59 -26 12 4 8 9 -16 19 -38 16 -35 16
-43 7z"/>
<path d="M1495 2990 c-21 -24 -15 -35 14 -25 12 3 21 15 21 26 0 24 -12 24
-35 -1z"/>
<path d="M542 3009 c2 -7 10 -15 17 -17 8 -3 12 1 9 9 -2 7 -10 15 -17 17 -8
3 -12 -1 -9 -9z"/>
<path d="M1650 2800 c0 -5 5 -10 10 -10 6 0 10 5 10 10 0 6 -4 10 -10 10 -5 0
-10 -4 -10 -10z"/>
<path d="M490 2945 c7 -9 15 -13 17 -11 7 7 -7 26 -19 26 -6 0 -6 -6 2 -15z"/>
<path d="M445 2880 c3 -5 11 -10 16 -10 6 0 7 5 4 10 -3 6 -11 10 -16 10 -6 0
-7 -4 -4 -10z"/>
<path d="M375 2740 c3 -5 13 -10 21 -10 8 0 12 5 9 10 -3 6 -13 10 -21 10 -8
0 -12 -4 -9 -10z"/>
<path d="M368 2393 c6 -2 18 -2 25 0 6 3 1 5 -13 5 -14 0 -19 -2 -12 -5z"/>
<path d="M1655 2330 c-9 -15 14 -40 36 -40 23 0 26 35 3 44 -22 9 -32 7 -39
-4z"/>
<path d="M573 2104 c-81 -43 -68 -164 22 -194 78 -26 159 18 172 92 4 31 0 41
-29 73 -29 32 -42 38 -84 41 -32 3 -60 -2 -81 -12z m87 -33 c5 -11 7 -27 4
-35 -4 -11 0 -16 14 -16 18 0 32 -18 32 -40 0 -18 -40 -32 -56 -19 -11 9 -17
9 -29 -1 -19 -16 -45 3 -45 32 0 10 7 21 15 24 8 4 15 16 15 28 0 22 17 46 32
46 4 0 12 -9 18 -19z"/>
<path d="M635 2010 c3 -5 8 -10 11 -10 2 0 4 5 4 10 0 6 -5 10 -11 10 -5 0 -7
-4 -4 -10z"/>
<path d="M1190 1871 c0 -6 5 -13 10 -16 6 -3 10 1 10 9 0 9 -4 16 -10 16 -5 0
-10 -4 -10 -9z"/>
<path d="M927 1883 c-4 -3 -7 -15 -7 -25 0 -21 36 -25 43 -5 9 27 -17 50 -36
30z"/>
<path d="M813 1715 c-3 -9 -3 -18 -1 -21 3 -3 8 4 11 16 6 23 -1 27 -10 5z"/>
</g>
</svg>
